<svg xmlns="http://www.w3.org/2000/svg" width="20" height="20" viewBox="0 0 20 20"><defs><style>.a{fill:#1abcfe;}.a,.b,.c,.d,.e{fill-rule:evenodd;}.b{fill:#0acf83;}.c{fill:#ff7262;}.d{fill:#f24e1e;}.e{fill:#a259ff;}</style></defs><title>figma_new</title><path class="a" d="M10,10a3.3334,3.3334,0,1,1,3.3333,3.3333A3.3333,3.3333,0,0,1,10,10Z"/><path class="b" d="M3.3333,16.6667a3.3334,3.3334,0,0,1,3.3334-3.3334H10v3.3334a3.3334,3.3334,0,0,1-6.6667,0Z"/><path class="c" d="M10,0V6.6667h3.3333a3.3334,3.3334,0,1,0,0-6.6667Z"/><path class="d" d="M3.3333,3.3333A3.3334,3.3334,0,0,0,6.6667,6.6667H10V0H6.6667A3.3334,3.3334,0,0,0,3.3333,3.3333Z"/><path class="e" d="M3.3333,10a3.3334,3.3334,0,0,0,3.3334,3.3333H10V6.6667H6.6667A3.3334,3.3334,0,0,0,3.3333,10Z"/></svg>